<svg width="276" height="135" viewBox="0 0 276 135" fill="none" xmlns="http://www.w3.org/2000/svg">
<g opacity="0.35">
<path d="M126.53 81.446C117.658 84.6588 112.984 81.6196 110.91 79.3722L87.2096 105.233C67.1961 126.903 43.1828 135.256 24.9486 128.066L119.604 25.6443C119.604 25.6443 129.013 13.9748 139.841 6.40122H139.832C140.604 5.84089 140.899 5.30492 140.646 4.28171C140.023 1.7389 133.683 0.0518133 126.14 0.0761755H126.134L107.295 0.121855C107.295 0.121855 100.377 -0.158311 95.7933 0.13099C94.8425 0.191896 82.7599 0.706548 78.6767 1.04762C74.5071 1.39478 63.7418 3.10318 60.7256 3.85232C41.5138 8.61818 23.1425 17.0749 8.87517 32.076C-9.88957 51.8033 -19.6624 75.1453 -18.6401 97.8053C-17.889 114.493 -11.2069 129.162 0.17234 139.105C10.8452 148.433 24.2333 153.318 38.7003 153.315C42.4079 153.315 46.1901 152.995 50.011 152.346C68.9098 149.136 87.3825 138.253 103.459 120.843L137.725 83.459C136.58 82.0581 133.192 79.0311 126.527 81.443L126.53 81.446ZM3.64751 96.7577C2.91433 80.4563 10.3803 63.0525 24.8741 47.9601C42.0264 30.0996 56.0463 24.7886 69.2377 24.0182C75.4489 23.6558 81.1177 24.3897 87.2633 27.2187L7.95422 113.251C5.40894 108.485 3.92171 102.876 3.64751 96.7577Z" fill="white"/>
<path d="M275.378 54.1443C273.817 37.2577 265.576 22.1602 252.776 12.73C222.208 -9.78751 186.617 -2.1858 155.108 33.5764L119.207 72.4175C119.207 72.4175 119.21 72.4205 119.21 72.4235L116.204 75.684C116.926 76.6316 119.506 78.9717 126.227 76.5619C134.518 73.583 140.245 76.6921 143.076 79.7376L148.142 74.249L171.509 48.9706L171.694 48.7647C195.685 21.4821 218.547 15.5273 239.636 31.0637C247.243 36.6674 252.158 45.8524 253.122 56.2604C254.565 71.8392 247.709 89.6492 232.461 105.077C211.116 126.668 190.609 133.125 169.858 126.465L200.641 92.5252L184.19 77.1856L138.191 127.903C138.191 127.903 129.057 139.137 118.431 146.673C117.276 147.366 116.804 147.893 117.105 149.11C117.711 151.559 123.698 153.212 130.95 153.287L131.013 153.315L150.212 153.306C150.212 153.306 166.526 153.366 169.972 153.121C170.628 153.075 182.201 152.161 184.482 151.973C186.519 151.807 196.458 150.024 198.692 149.461C218.213 144.559 233.933 136.549 248.733 120.61C267.965 99.8998 277.427 76.2925 275.375 54.1413L275.378 54.1443Z" fill="white"/>
</g>
</svg>
